<svg xmlns="http://www.w3.org/2000/svg" version="1.1" xmlns:xlink="http://www.w3.org/1999/xlink" xmlns:svgjs="http://svgjs.dev/svgjs" width="2000" height="1870" viewBox="0 0 2000 1870"><g transform="matrix(1,0,0,1,-2.5973751168831996,0)"><svg viewBox="0 0 385 360" data-background-color="#ffffff" preserveAspectRatio="xMidYMid meet" height="1870" width="2000" xmlns="http://www.w3.org/2000/svg" xmlns:xlink="http://www.w3.org/1999/xlink"><g id="tight-bounds" transform="matrix(1,0,0,1,0.50000528999999,0)"><svg viewBox="0 0 384 360" height="360" width="384"><g><svg></svg></g><g><svg viewBox="0 0 384 360" height="360" width="384"><g><path transform="translate(-42.61557,-54.61557) scale(4.69231,4.69231)" d="M86.305 42.635v-9.002c0-4.501-4.084-8.184-9.076-8.184h-19.864c-3.239 0-6.039-1.882-7.365-4.613-1.326 2.73-4.126 4.613-7.365 4.613h-19.864c-4.992 0-9.076 3.683-9.076 8.184v9.002c0 3.239-1.882 6.039-4.613 7.365 2.73 1.326 4.613 4.126 4.613 7.365v9.002c0 4.501 4.084 8.184 9.076 8.184h19.864c3.239 0 6.039 1.882 7.365 4.613 1.326-2.73 4.126-4.613 7.365-4.613h19.864c4.992 0 9.076-3.683 9.076-8.184v-9.002c0-3.239 1.882-6.039 4.613-7.365-2.73-1.326-4.613-4.126-4.613-7.365z" fill="#471aa0" fill-rule="nonzero" stroke="none" stroke-width="1" stroke-linecap="butt" stroke-linejoin="miter" stroke-miterlimit="10" stroke-dasharray="" stroke-dashoffset="0" font-family="none" font-weight="none" font-size="none" text-anchor="none" style="mix-blend-mode: normal" data-fill-palette-color="tertiary"></path></g><g transform="matrix(1,0,0,1,99.10025368464325,99)"><svg viewBox="0 0 185.7994926307135 162" height="162" width="185.7994926307135"><g><svg viewBox="0 0 252.40572847827406 220.07448693496133" height="162" width="185.7994926307135"><g transform="matrix(1,0,0,1,11.00286423913704,185.65308273312976)"><svg viewBox="0 0 230.39999999999998 34.42140420183156" height="34.42140420183156" width="230.39999999999998"><g id="textblocktransform"><svg viewBox="0 0 230.39999999999998 34.42140420183156" height="34.42140420183156" width="230.39999999999998" id="textblock"><g><svg viewBox="0 0 230.39999999999998 34.42140420183156" height="34.42140420183156" width="230.39999999999998"><g transform="matrix(1,0,0,1,0,0)"><svg width="230.39999999999998" viewBox="3.35 -39.55 278.41999999999996 41.6" height="34.42140420183156" data-palette-color="#ffffff"><path d="M7.5-16.55L7.5-16.55Q7.55-13.15 7.78-8.93 8-4.7 8.45 1.6L8.45 1.6Q7.8 1.75 6.95 1.85 6.1 1.95 5.2 2L5.2 2Q4.15-9.9 3.75-17.9 3.35-25.9 3.35-33.85L3.35-33.85Q3.4-33.85 3.45-33.88 3.5-33.9 3.5-33.9L3.5-33.9Q4.75-34.5 5.68-34.77 6.6-35.05 7.8-35.25L7.8-35.25Q12.95-28.6 16.78-21.98 20.6-15.35 23.9-7.45L23.9-7.45Q24-9.1 24.03-11.18 24.05-13.25 24.05-17.6L24.05-17.6Q24.05-24.3 23.83-29.23 23.6-34.15 23.15-37.1L23.15-37.1Q24.4-37.5 25.38-37.65 26.35-37.8 27.4-37.85L27.4-37.85Q27.6-33.6 27.65-31.48 27.7-29.35 27.7-27.45L27.7-27.45Q27.7-19.6 27.45-13.7 27.2-7.8 26.65-1.2L26.65-1.2Q25.9-1.05 25.13-0.98 24.35-0.9 23.4-0.85L23.4-0.85Q19.75-9.45 15.75-16.48 11.75-23.5 7.4-29.1L7.4-29.1Q7.35-26.45 7.43-22 7.5-17.55 7.5-16.55ZM55.5 0.65L55.5 0.65Q51.55 1.25 47.22 1.58 42.9 1.9 37.8 2.05L37.8 2.05Q36.35-7.55 35.42-17.48 34.5-27.4 34.4-34.55L34.4-34.55Q41.35-35.75 45.55-36.2 49.75-36.65 54.35-36.75L54.35-36.75Q54.35-35.85 54.27-35.02 54.2-34.2 54.05-33.5L54.05-33.5Q49.95-33.45 46.17-33.13 42.4-32.8 38.75-32.2L38.75-32.2Q38.65-29.2 38.75-26 38.85-22.8 39.1-19.1L39.1-19.1Q43.9-19.95 46.52-20.33 49.15-20.7 51.75-20.9L51.75-20.9Q51.95-20.2 52.02-19.45 52.1-18.7 52.05-17.8L52.05-17.8Q48.25-17.5 45.47-17.18 42.7-16.85 39.3-16.3L39.3-16.3Q39.65-12.2 40.07-8.35 40.5-4.5 41.05-1L41.05-1Q45.2-1.1 48.62-1.5 52.05-1.9 55.25-2.6L55.25-2.6Q55.45-1.9 55.52-0.95 55.6 0 55.5 0.65ZM67.95-12.55L67.95-12.55Q64.59-12.15 61.65-12.25 58.7-12.35 57.05-12.85L57.05-12.85Q57-13.9 57.07-14.68 57.15-15.45 57.35-16.25L57.35-16.25Q58.55-16 60.3-15.85 62.05-15.7 63.7-15.7L63.7-15.7Q65.3-15.7 66.37-15.75 67.45-15.8 68.25-15.95L68.25-15.95Q68.25-15 68.17-14.18 68.09-13.35 67.95-12.55ZM95.14-0.6L95.14-0.6Q94.54 0 93.79 0.53 93.04 1.05 92.24 1.4L92.24 1.4Q89.74-4.4 87.59-8.85 85.44-13.3 83.44-16.95L83.44-16.95Q79.44-12 76.09-8.22 72.74-4.45 69.29-0.95L69.29-0.95Q68.64-1.4 68.04-1.95 67.44-2.5 67.14-3.05L67.14-3.05Q71.74-8 75.19-12.03 78.64-16.05 81.64-20L81.64-20Q79.09-24.25 76.22-28.05 73.34-31.85 69.59-35.85L69.59-35.85Q70.54-36.7 71.49-37.33 72.44-37.95 73.44-38.3L73.44-38.3Q76.94-34 79.54-30.35 82.14-26.7 84.29-23.1L84.29-23.1Q86.84-26.65 88.99-30.1 91.14-33.55 93.09-37.1L93.09-37.1Q93.84-36.7 94.62-36.02 95.39-35.35 95.99-34.5L95.99-34.5Q93.84-31 91.42-27.45 88.99-23.9 86.04-20.05L86.04-20.05Q88.14-16.35 90.24-11.83 92.34-7.3 95.14-0.6ZM116.29-1.7L116.29-1.7Q115.64-1.5 114.64-1.38 113.64-1.25 112.59-1.2L112.59-1.2Q112.84-9.25 112.39-18.4 111.94-27.55 110.84-35.3L110.84-35.3Q108.29-35.05 105.57-34.68 102.84-34.3 99.69-33.85L99.69-33.85Q99.49-34.7 99.39-35.55 99.29-36.4 99.34-37.1L99.34-37.1Q106.84-38.35 112.67-38.9 118.49-39.45 125.94-39.55L125.94-39.55Q126.09-39.2 126.17-38.75 126.24-38.3 126.29-37.75L126.29-37.75Q126.29-37.55 126.29-37.3 126.29-37.05 126.19-36.1L126.19-36.1Q123.19-36.05 120.54-35.95 117.89-35.85 115.29-35.65L115.29-35.65Q115.94-29.15 116.24-23.43 116.54-17.7 116.54-11.5L116.54-11.5Q116.54-9.35 116.49-6.95 116.44-4.55 116.29-1.7ZM158.24-11.1L158.24-11.1Q159.19-11.15 159.96-11 160.74-10.85 161.49-10.45L161.49-10.45Q161.19-4.45 158.44-1.35 155.69 1.75 150.74 1.75L150.74 1.75Q145.29 1.75 142.31-2.35 139.34-6.45 139.34-14.05L139.34-14.05Q139.34-23.25 143.16-28.95 146.99-34.65 153.19-34.65L153.19-34.65Q157.54-34.65 159.59-31.83 161.64-29 161.49-23.25L161.49-23.25Q160.79-22.8 159.81-22.58 158.84-22.35 157.59-22.4L157.59-22.4Q157.94-27.35 156.74-29.55 155.54-31.75 152.49-31.75L152.49-31.75Q148.74-31.75 146.14-27.05 143.54-22.35 143.54-14.9L143.54-14.9Q143.54-8.25 145.54-4.7 147.54-1.15 151.29-1.15L151.29-1.15Q154.69-1.15 156.54-3.83 158.39-6.5 158.24-11.1ZM184.13-17.05L184.13-17.05Q184.13-13.75 183.23-8.3 182.33-2.85 181.08 1.7L181.08 1.7Q180.33 1.7 179.48 1.55 178.63 1.4 177.83 1.15L177.83 1.15Q177.88 0.95 177.93 0.68 177.98 0.4 178.13-0.05L178.13-0.05Q178.28-0.85 178.38-1.23 178.48-1.6 178.53-1.9L178.53-1.9Q177.48-1.15 176.16-0.75 174.83-0.35 173.33-0.35L173.33-0.35Q169.93-0.35 167.83-2.18 165.73-4 165.73-7L165.73-7Q165.73-10.25 168.48-11.95 171.23-13.65 176.58-13.65L176.58-13.65Q177.38-13.65 178.13-13.63 178.88-13.6 180.13-13.55L180.13-13.55Q180.18-14.05 180.18-14.65 180.18-15.25 180.18-16.55L180.18-16.55Q180.18-20.55 179.21-22.35 178.23-24.15 175.98-24.15L175.98-24.15Q173.68-24.15 172.13-22.13 170.58-20.1 170.48-17L170.48-17Q169.08-17.2 168.23-17.68 167.38-18.15 166.93-18.95L166.93-18.95Q167.53-22.25 170.26-24.55 172.98-26.85 176.48-26.85L176.48-26.85Q180.28-26.85 182.21-24.38 184.13-21.9 184.13-17.05ZM169.68-6.9L169.68-6.9Q169.68-5.05 170.88-3.98 172.08-2.9 174.03-2.9L174.03-2.9Q175.43-2.9 176.71-3.33 177.98-3.75 179.08-4.6L179.08-4.6Q179.48-6.65 179.71-8.25 179.93-9.85 180.03-11.45L180.03-11.45Q174.88-11.75 172.28-10.63 169.68-9.5 169.68-6.9ZM194.38 0.1L194.38 0.1Q193.98 0.25 193.43 0.35 192.88 0.45 192.33 0.45L192.33 0.45Q191.93 0.5 191.61 0.45 191.28 0.4 190.98 0.3L190.98 0.3Q189.73-6.05 189.31-13 188.88-19.95 189.23-27L189.23-27Q189.58-27.15 190.08-27.23 190.58-27.3 191.58-27.3L191.58-27.3Q192.08-27.3 192.56-27.23 193.03-27.15 193.53-27L193.53-27Q193.23-24.85 193.08-23.35 192.93-21.85 192.88-20.5L192.88-20.5Q194.03-24.4 195.93-26.65 197.83-28.9 199.88-28.9L199.88-28.9Q201.88-28.9 202.83-27.43 203.78-25.95 203.78-22.9L203.78-22.9Q203.78-22.3 203.73-21.6 203.68-20.9 203.63-20.1L203.63-20.1Q203.03-19.95 202.21-19.88 201.38-19.8 200.43-19.85L200.43-19.85Q200.53-20.6 200.58-21.28 200.63-21.95 200.63-22.6L200.63-22.6Q200.63-24.2 200.23-24.98 199.83-25.75 199.03-25.75L199.03-25.75Q197.33-25.75 195.63-22.18 193.93-18.6 192.93-12.9L192.93-12.9Q193.08-10.05 193.43-6.83 193.78-3.6 194.38 0.1ZM209.38-15.65L209.38-15.65Q210.83-15.15 212.5-14.88 214.18-14.6 216.03-14.6L216.03-14.6Q216.53-14.6 217.2-14.65 217.88-14.7 218.18-14.8L218.18-14.8Q218.58-16.25 218.75-17.48 218.93-18.7 218.93-19.7L218.93-19.7Q218.93-21.9 218.2-22.85 217.48-23.8 215.88-23.8L215.88-23.8Q213.78-23.8 212.03-21.55 210.28-19.3 209.38-15.65ZM220.53-8.5L220.53-8.5Q221.33-8.35 222.15-7.9 222.98-7.45 223.58-6.85L223.58-6.85Q222.63-4 219.7-1.73 216.78 0.55 213.63 0.55L213.63 0.55Q209.58 0.55 207.25-2.6 204.93-5.75 204.93-11.05L204.93-11.05Q204.93-17 208.25-21.75 211.58-26.5 216.18-26.5L216.18-26.5Q219.13-26.5 220.85-24.63 222.58-22.75 222.58-19.55L222.58-19.55Q222.58-17.85 222.25-16.13 221.93-14.4 221.38-12.85L221.38-12.85Q220.38-12.5 218.95-12.33 217.53-12.15 215.43-12.15L215.43-12.15Q213.83-12.15 212.15-12.43 210.48-12.7 208.93-13.25L208.93-13.25Q208.83-12.65 208.8-12.08 208.78-11.5 208.78-10.95L208.78-10.95Q208.78-7 210.15-4.58 211.53-2.15 213.83-2.15L213.83-2.15Q215.83-2.15 217.83-4.03 219.83-5.9 220.53-8.5ZM231.13-15.65L231.13-15.65Q232.58-15.15 234.25-14.88 235.93-14.6 237.78-14.6L237.78-14.6Q238.28-14.6 238.95-14.65 239.63-14.7 239.93-14.8L239.93-14.8Q240.33-16.25 240.5-17.48 240.68-18.7 240.68-19.7L240.68-19.7Q240.68-21.9 239.95-22.85 239.23-23.8 237.63-23.8L237.63-23.8Q235.53-23.8 233.78-21.55 232.03-19.3 231.13-15.65ZM242.28-8.5L242.28-8.5Q243.08-8.35 243.9-7.9 244.73-7.45 245.33-6.85L245.33-6.85Q244.38-4 241.45-1.73 238.53 0.55 235.38 0.55L235.38 0.55Q231.33 0.55 229-2.6 226.68-5.75 226.68-11.05L226.68-11.05Q226.68-17 230-21.75 233.33-26.5 237.93-26.5L237.93-26.5Q240.88-26.5 242.6-24.63 244.33-22.75 244.33-19.55L244.33-19.55Q244.33-17.85 244-16.13 243.68-14.4 243.13-12.85L243.13-12.85Q242.13-12.5 240.7-12.33 239.28-12.15 237.18-12.15L237.18-12.15Q235.58-12.15 233.9-12.43 232.23-12.7 230.68-13.25L230.68-13.25Q230.58-12.65 230.55-12.08 230.53-11.5 230.53-10.95L230.53-10.95Q230.53-7 231.9-4.58 233.28-2.15 235.58-2.15L235.58-2.15Q237.58-2.15 239.58-4.03 241.58-5.9 242.28-8.5ZM254.32 0.1L254.32 0.1Q253.92 0.25 253.37 0.35 252.82 0.45 252.27 0.45L252.27 0.45Q251.87 0.5 251.55 0.45 251.22 0.4 250.92 0.3L250.92 0.3Q249.67-6.05 249.25-13 248.82-19.95 249.17-27L249.17-27Q249.52-27.15 250.02-27.23 250.52-27.3 251.52-27.3L251.52-27.3Q252.02-27.3 252.5-27.23 252.97-27.15 253.47-27L253.47-27Q253.17-24.85 253.02-23.35 252.87-21.85 252.82-20.5L252.82-20.5Q253.97-24.4 255.87-26.65 257.77-28.9 259.82-28.9L259.82-28.9Q261.82-28.9 262.77-27.43 263.72-25.95 263.72-22.9L263.72-22.9Q263.72-22.3 263.67-21.6 263.62-20.9 263.57-20.1L263.57-20.1Q262.97-19.95 262.15-19.88 261.32-19.8 260.37-19.85L260.37-19.85Q260.47-20.6 260.52-21.28 260.57-21.95 260.57-22.6L260.57-22.6Q260.57-24.2 260.17-24.98 259.77-25.75 258.97-25.75L258.97-25.75Q257.27-25.75 255.57-22.18 253.87-18.6 252.87-12.9L252.87-12.9Q253.02-10.05 253.37-6.83 253.72-3.6 254.32 0.1ZM275.92-14.4L275.92-14.4Q279.52-11.8 280.64-9.98 281.77-8.15 281.77-5.95L281.77-5.95Q281.77-2.5 279.57-0.25 277.37 2 273.97 2L273.97 2Q270.42 2 268.19-0.55 265.97-3.1 265.97-7.3L265.97-7.3Q266.72-7.55 267.55-7.68 268.37-7.8 269.17-7.75L269.17-7.75Q269.07-4.4 270.34-2.5 271.62-0.6 274.02-0.6L274.02-0.6Q275.82-0.6 276.89-1.83 277.97-3.05 277.97-5.15L277.97-5.15Q277.97-6.85 277.02-8.33 276.07-9.8 272.92-12.1L272.92-12.1Q269.22-14.8 268.07-16.73 266.92-18.65 266.92-21L266.92-21Q266.92-24.15 268.82-26.03 270.72-27.9 273.97-27.9L273.97-27.9Q277.07-27.9 278.84-26.1 280.62-24.3 281.32-20.35L281.32-20.35Q280.57-20 279.8-19.83 279.02-19.65 278.17-19.55L278.17-19.55Q277.77-22.5 276.75-23.85 275.72-25.2 273.92-25.2L273.92-25.2Q272.42-25.2 271.55-24.2 270.67-23.2 270.67-21.5L270.67-21.5Q270.67-19.75 271.67-18.25 272.67-16.75 275.92-14.4Z" opacity="1" transform="matrix(1,0,0,1,0,0)" fill="#ffffff" class="wordmark-text-0" data-fill-palette-color="quaternary" id="text-0"></path></svg></g></svg></g></svg></g></svg></g><g><svg viewBox="0 0 252.40572847827406 177.52701531477817" height="177.52701531477817" width="252.40572847827406"><g><svg xmlns="http://www.w3.org/2000/svg" xmlns:xlink="http://www.w3.org/1999/xlink" version="1.1" x="0" y="0" viewBox="25 32 50.900000000000006 35.8" style="enable-background:new 0 0 100 100;" xml:space="preserve" height="177.52701531477817" width="252.40572847827406" class="icon-icon-0" data-fill-palette-color="quaternary" id="icon-0"><g fill="#ffffff" data-fill-palette-color="quaternary"><path d="M73.7 38.4L73.9 38.1 74 37.3 72.4 33.1 72 32.7 69 33.8 68.5 33.3 62.6 32 47.6 40.4 43.5 43.8 38.4 44.9 38.2 50.7 38 53.4 37.5 53.7 37.4 54.7 37.2 55.4 35.5 56.2 34.5 56.7 33.5 56.8 32.5 57.4H30.4L29.5 57.8 28.7 57.7 26.4 57.9 25.6 57.7 25.4 58.1V59L25 59.6V60.5L28.2 62.4 28.3 63.6 29.4 64.4 30.8 63.7 31.2 63.9 31.3 64.3 31.6 64.5 31.7 65.1 31.3 65.6 32 66.5 32.6 66.4 33.2 66.2 33 65.8 33.3 65.2 34.4 66 35 66.8 35.8 66.9 36.5 67.8 37 67.4V67.1H36.6L36.2 66.3 36.4 66 36.3 65.7 37 65.1H37.6V64.7L37.4 64.4 37.3 63.9 37.4 63.7 37.5 63.5 37.2 63 37.3 62.7 38 62.2 38.4 62.1 38.7 62 39.4 61.9H41.2L41.5 61.7H42L42.4 61.8 43.3 61.9 43.7 62.1 44.2 62.2 45.2 62.5 45.5 62.8 46.2 63.8 46.9 64.2 47.2 64.1 47.6 63.7H48.1L48.6 63.5 49.6 63.3 49.7 63.2H50.2L50.8 63.6V63.8L51.5 64 52.6 64.5 53.3 64.6 54.7 65 55.3 65.1 56.1 64.6 56.9 63.5 57.6 63.3 59.4 63.4 60.1 63.1 61.6 63.3 62.7 63.8H63.6L64 64.1S64.2 64.3 64.6 64.2C64.9 64.1 65.1 63.7 65.1 63.7L65.2 63.5 65.9 63.3 66 63 66.4 62.9 66.9 63.1 67.2 63 67.3 62.6 67.7 62 68.3 62.2 68 58.4 68.1 58H68.5L68.8 57.9 69 57.6 74.5 52.5 74.4 48.1 75.3 42.4 75.8 41.9 75.9 40.8z" fill="#ffffff" data-fill-palette-color="quaternary"></path></g></svg></g></svg></g><g></g></svg></g></svg></g></svg></g><defs></defs></svg><rect width="384" height="360" fill="none" stroke="none" visibility="hidden"></rect></g></svg></g></svg>